<?xml version="1.0" encoding="UTF-8"?>
<svg xmlns="http://www.w3.org/2000/svg" xmlns:xlink="http://www.w3.org/1999/xlink" width="48" height="48" viewBox="0 0 48 48">
<rect x="-4.8" y="-4.8" width="57.6" height="57.6" fill="rgb(10.196078%, 19.215686%, 52.941176%)" fill-opacity="1"/>
<path fill-rule="nonzero" fill="rgb(98.039216%, 34.901961%, 29.411765%)" fill-opacity="1" d="M 36.707031 11.648438 C 42.945312 11.648438 48 16.703125 48 22.941406 C 48 28.816406 43.511719 33.644531 37.777344 34.183594 C 36 41.46875 27.5625 47.648438 19.058594 47.648438 C 19 47.648438 18.941406 47.644531 18.882812 47.636719 C 12.417969 46.828125 0 24.355469 0 14.472656 C 0 5.976562 3.179688 0.355469 7.058594 0.355469 C 8.523438 0.355469 10.894531 1.085938 14.347656 2.539062 C 15.917969 3.199219 16.941406 4.738281 16.941406 6.441406 L 16.941406 8.492188 C 16.941406 10.09375 16.035156 11.5625 14.597656 12.277344 L 14.488281 12.328125 L 8.5625 14.6875 C 9.167969 17.828125 12.695312 22.570312 18.78125 28.519531 C 19.746094 25.371094 22.246094 22.863281 25.457031 21.925781 C 25.96875 16.164062 30.808594 11.648438 36.703125 11.648438 Z M 36.707031 11.648438 "/>
</svg>
